<?xml version="1.0" encoding="UTF-8" standalone="no"?>
<svg
   xmlns:dc="http://purl.org/dc/elements/1.1/"
   xmlns:cc="http://creativecommons.org/ns#"
   xmlns:rdf="http://www.w3.org/1999/02/22-rdf-syntax-ns#"
   xmlns:svg="http://www.w3.org/2000/svg"
   xmlns="http://www.w3.org/2000/svg"
   xmlns:sodipodi="http://sodipodi.sourceforge.net/DTD/sodipodi-0.dtd"
   xmlns:inkscape="http://www.inkscape.org/namespaces/inkscape"
   width="174.63007"
   height="56.470581"
   viewBox="0 0 46.204205 14.941175"
   version="1.1"
   id="svg8"
   sodipodi:docname="sechat-1.svg"
   inkscape:version="0.92.1 r15371">
  <defs
     id="defs2" />
  <sodipodi:namedview
     id="base"
     pagecolor="#065143"
     bordercolor="#666666"
     borderopacity="1.0"
     inkscape:pageopacity="1"
     inkscape:pageshadow="2"
     inkscape:zoom="7.9195959"
     inkscape:cx="82.232459"
     inkscape:cy="27.460721"
     inkscape:document-units="mm"
     inkscape:current-layer="layer1"
     showgrid="false"
     inkscape:window-width="2479"
     inkscape:window-height="1057"
     inkscape:window-x="-8"
     inkscape:window-y="-8"
     inkscape:window-maximized="1"
     fit-margin-top="10"
     fit-margin-left="10"
     fit-margin-right="10"
     fit-margin-bottom="10"
     units="px" />
  <metadata
     id="metadata5">
    <rdf:RDF>
      <cc:Work
         rdf:about="">
        <dc:format>image/svg+xml</dc:format>
        <dc:type
           rdf:resource="http://purl.org/dc/dcmitype/StillImage" />
        <dc:title></dc:title>
      </cc:Work>
    </rdf:RDF>
  </metadata>
  <g
     inkscape:label="Layer 1"
     inkscape:groupmode="layer"
     id="layer1"
     transform="translate(-78.538257,-141.02966)">
    <path
       style="font-style:normal;font-variant:normal;font-weight:bold;font-stretch:normal;font-size:12.69999981px;line-height:1.25;font-family:'Roboto Condensed';-inkscape-font-specification:'Roboto Condensed, Bold';font-variant-ligatures:normal;font-variant-caps:normal;font-variant-numeric:normal;font-feature-settings:normal;text-align:start;letter-spacing:0px;word-spacing:0px;writing-mode:lr-tb;text-anchor:start;fill:#b4cac6;fill-opacity:1;stroke:none;stroke-width:0.99999994"
       d="m 55.068359,11.40625 c -3.140623,0 -5.734373,0.875003 -7.78125,2.625 -0.660725,0.564158 -1.204201,1.194044 -1.646484,1.880859 0.33777,1.099426 0.523437,2.269559 0.523437,3.486329 v 2 2.558593 h 3.271485 c 0.602873,0 1.089844,0.508448 1.089844,1.138672 v 2 3.082031 c 0.989915,0.529229 2.103795,1.030533 3.347656,1.501954 1.875001,0.76563 3.164062,1.507822 3.867187,2.226562 0.718751,0.703118 1.078125,1.749986 1.078125,3.140625 0,2.546872 -1.203123,3.820313 -3.609375,3.820313 -1.734374,0 -2.984376,-0.445305 -3.75,-1.335938 -0.446512,-0.519402 -0.747487,-1.244756 -0.933593,-2.130859 v 5.929687 2 c 0,0.114707 -0.03245,0.219859 -0.0625,0.324219 1.466494,0.538792 3.047363,0.814453 4.746093,0.814453 3.250001,0 5.820312,-0.835927 7.710938,-2.507812 1.890623,-1.671862 2.835937,-3.992195 2.835937,-6.960938 0,-2.703143 -0.757814,-4.929691 -2.273437,-6.679688 -1.500001,-1.749995 -3.914064,-3.226563 -7.242188,-4.429687 -1.90625,-0.812498 -3.234375,-1.593741 -3.984375,-2.34375 -0.750002,-0.765606 -1.125,-1.617164 -1.125,-2.554687 0,-1.203125 0.335936,-2.156257 1.007813,-2.859376 0.671874,-0.718739 1.609375,-1.078124 2.8125,-1.078124 1.28125,0 2.257811,0.421884 2.929687,1.265624 0.687499,0.82812 1.03125,2.039062 1.03125,3.632813 h 6.867188 c 0,-2.046866 -0.445312,-3.875002 -1.335938,-5.484375 C 63.568358,14.859377 62.310547,13.617198 60.669922,12.742188 59.029297,11.85158 57.162109,11.40625 55.068359,11.40625 Z"
       transform="matrix(0.26458333,0,0,0.26458333,76.421589,141.02965)"
       id="path4612"
       inkscape:connector-curvature="0" />
    <path
       inkscape:connector-curvature="0"
       id="path4614"
       style="font-style:normal;font-variant:normal;font-weight:bold;font-stretch:normal;font-size:12.69999981px;line-height:1.25;font-family:'Roboto Condensed';-inkscape-font-specification:'Roboto Condensed, Bold';font-variant-ligatures:normal;font-variant-caps:normal;font-variant-numeric:normal;font-feature-settings:normal;text-align:start;letter-spacing:0px;word-spacing:0px;writing-mode:lr-tb;text-anchor:start;fill:#b4cac6;fill-opacity:1;stroke:none;stroke-width:0.26458332"
       d="m 97.664012,153.32451 q -1.351856,0 -2.108399,-0.80615 -0.756542,-0.80616 -0.756542,-2.30684 v -0.5333 q 0,-1.5875 0.694531,-2.44946 0.694531,-0.86197 1.990576,-0.86197 1.265039,0 1.90376,0.81236 0.638722,0.80615 0.651122,2.39365 v 0.86196 h -3.491259 q 0.03721,0.74414 0.328662,1.09141 0.291455,0.34106 0.89917,0.34106 0.880566,0 1.469678,-0.60151 l 0.68833,1.0604 q -0.322461,0.44648 -0.936377,0.72554 -0.613916,0.27285 -1.333252,0.27285 z m -1.103809,-4.11758 h 1.754932 v -0.16123 q -0.0124,-0.60151 -0.198438,-0.91157 -0.186035,-0.31006 -0.644921,-0.31006 -0.458887,0 -0.669727,0.32866 -0.204639,0.32866 -0.241846,1.0542 z" />
    <path
       inkscape:connector-curvature="0"
       id="path4616"
       style="font-style:normal;font-variant:normal;font-weight:bold;font-stretch:normal;font-size:12.69999981px;line-height:1.25;font-family:'Roboto Condensed';-inkscape-font-specification:'Roboto Condensed, Bold';font-variant-ligatures:normal;font-variant-caps:normal;font-variant-numeric:normal;font-feature-settings:normal;text-align:start;letter-spacing:0px;word-spacing:0px;writing-mode:lr-tb;text-anchor:start;fill:#b4cac6;fill-opacity:1;stroke:none;stroke-width:0.26458332"
       d="m 103.45591,151.86723 q 0.76274,0 0.77514,-0.99218 h 1.64951 q -0.0124,1.0976 -0.67592,1.77353 -0.66353,0.67593 -1.71153,0.67593 -1.29604,0 -1.97817,-0.80615 -0.68213,-0.80616 -0.69453,-2.37505 v -0.5333 q 0,-1.5813 0.66972,-2.41226 0.67593,-0.83096 1.99058,-0.83096 1.11001,0 1.74873,0.68833 0.63872,0.68213 0.65112,1.94097 h -1.64951 q -0.006,-0.56431 -0.18603,-0.86816 -0.17984,-0.30386 -0.59531,-0.30386 -0.45889,0 -0.65733,0.32866 -0.19844,0.32246 -0.21084,1.25884 v 0.68213 q 0,0.81855 0.0806,1.14721 0.0806,0.32247 0.26665,0.4775 0.18603,0.14882 0.5271,0.14882 z" />
    <path
       inkscape:connector-curvature="0"
       id="path4618"
       style="font-style:normal;font-variant:normal;font-weight:bold;font-stretch:normal;font-size:12.69999981px;line-height:1.25;font-family:'Roboto Condensed';-inkscape-font-specification:'Roboto Condensed, Bold';font-variant-ligatures:normal;font-variant-caps:normal;font-variant-numeric:normal;font-feature-settings:normal;text-align:start;letter-spacing:0px;word-spacing:0px;writing-mode:lr-tb;text-anchor:start;fill:#b4cac6;fill-opacity:1;stroke:none;stroke-width:0.26458332"
       d="m 108.59668,147.07993 q 0.57051,-0.71314 1.40146,-0.71314 0.91778,0 1.39527,0.64493 0.47749,0.64492 0.48369,1.92236 v 4.26641 h -1.76114 v -4.24781 q 0,-0.58911 -0.18603,-0.84956 -0.17983,-0.26665 -0.58911,-0.26665 -0.47749,0 -0.74414,0.44028 v 4.92374 h -1.75493 v -9.525 h 1.75493 z" />
    <path
       inkscape:connector-curvature="0"
       id="path4620"
       style="font-style:normal;font-variant:normal;font-weight:bold;font-stretch:normal;font-size:12.69999981px;line-height:1.25;font-family:'Roboto Condensed';-inkscape-font-specification:'Roboto Condensed, Bold';font-variant-ligatures:normal;font-variant-caps:normal;font-variant-numeric:normal;font-feature-settings:normal;text-align:start;letter-spacing:0px;word-spacing:0px;writing-mode:lr-tb;text-anchor:start;fill:#b4cac6;fill-opacity:1;stroke:none;stroke-width:0.26458332"
       d="m 116.32334,153.20049 q -0.0744,-0.15503 -0.14883,-0.5209 -0.47129,0.64492 -1.27744,0.64492 -0.84336,0 -1.40147,-0.55811 -0.5519,-0.5581 -0.5519,-1.44487 0,-1.0542 0.66973,-1.63091 0.67592,-0.57671 1.94096,-0.58911 h 0.5333 v -0.5395 q 0,-0.45269 -0.15503,-0.63872 -0.15502,-0.18604 -0.45268,-0.18604 -0.65733,0 -0.65733,0.76895 h -1.75493 q 0,-0.93018 0.69453,-1.53169 0.70074,-0.60772 1.76734,-0.60772 1.10381,0 1.70532,0.57671 0.60772,0.57051 0.60772,1.63711 v 3.1564 q 0.0124,0.86816 0.24804,1.35806 v 0.10542 z m -1.0356,-1.25264 q 0.29146,0 0.4961,-0.11782 0.20463,-0.11783 0.30385,-0.27906 v -1.39526 h -0.42168 q -0.44648,0 -0.70693,0.28525 -0.25425,0.28526 -0.25425,0.76275 0,0.74414 0.58291,0.74414 z" />
    <path
       inkscape:connector-curvature="0"
       id="path4622"
       style="font-style:normal;font-variant:normal;font-weight:bold;font-stretch:normal;font-size:12.69999981px;line-height:1.25;font-family:'Roboto Condensed';-inkscape-font-specification:'Roboto Condensed, Bold';font-variant-ligatures:normal;font-variant-caps:normal;font-variant-numeric:normal;font-feature-settings:normal;text-align:start;letter-spacing:0px;word-spacing:0px;writing-mode:lr-tb;text-anchor:start;fill:#b4cac6;fill-opacity:1;stroke:none;stroke-width:0.26458332"
       d="m 121.15405,144.84131 v 1.64951 h 0.89917 v 1.32085 h -0.89917 v 3.33003 q 0,0.39687 0.10542,0.5457 0.11162,0.14883 0.42168,0.14883 0.25425,0 0.41548,-0.0434 l -0.0124,1.36426 q -0.44649,0.16743 -0.96739,0.16743 -1.69912,0 -1.71772,-1.94717 v -3.56567 h -0.77515 v -1.32085 h 0.77515 v -1.64951 z" />
    <text
       xml:space="preserve"
       style="font-style:normal;font-weight:normal;font-size:10.58333302px;line-height:1.25;font-family:sans-serif;letter-spacing:0px;word-spacing:0px;fill:#000000;fill-opacity:1;stroke:none;stroke-width:0.26458332"
       x="108.29018"
       y="125.02083"
       id="text4493"><tspan
         sodipodi:role="line"
         id="tspan4491"
         x="108.29018"
         y="134.3846"
         style="stroke-width:0.26458332" /></text>
    <g
       id="g4510"
       transform="matrix(0.01802781,0,0,0.0188457,84.840534,143.676)">
      <g
         id="icomoon-ignore" />
      <path
         id="path4498"
         d="m 229.1776,512 h -415.99999 c -8.832,0 -16,-7.152 -16,-16 V 240 c 0,-8.848 7.168,-16 16,-16 h 48 V 160 C -138.82239,71.632 -67.190388,0 21.177606,0 109.5456,0 181.1776,71.632 181.1776,160 v 64 h 48 c 8.848,0 16,7.152 16,16 v 256 c 0,8.848 -7.152,16 -16,16 z m -112,-360 c 0,-48.608 -42.991998,-88 -95.999994,-88 -53.007996,0 -95.999994,39.392 -95.999994,88 v 72 H 117.1776 Z"
         inkscape:connector-curvature="0"
         style="fill:#b4cac6;fill-opacity:1;stroke:none;stroke-width:84.20321655;stroke-miterlimit:4;stroke-dasharray:none;stroke-opacity:1" />
      <path
         style="fill:#b4cac6;fill-opacity:1;stroke:none;stroke-width:84.20321655;stroke-miterlimit:4;stroke-dasharray:none;stroke-opacity:1"
         inkscape:connector-curvature="0"
         d="m 229.1776,512 h -415.99999 c -8.832,0 -16,-7.152 -16,-16 V 240 c 0,-8.848 7.168,-16 16,-16 h 48 V 160 C -138.82239,71.632 -67.190388,0 21.177606,0 109.5456,0 181.1776,71.632 181.1776,160 v 64 h 48 c 8.848,0 16,7.152 16,16 v 256 c 0,8.848 -7.152,16 -16,16 z m -112,-360 c 0,-48.608 -42.991998,-88 -95.999994,-88 -53.007996,0 -95.999994,39.392 -95.999994,88 v 72 H 117.1776 Z"
         id="path4569" />
    </g>
    <g
       transform="matrix(0.01802781,0,0,0.0188457,85.369701,143.14683)"
       id="g4577">
      <g
         id="g4571" />
    </g>
  </g>
</svg>
